<svg width="68" height="26" viewBox="0 0 68 26" fill="none" xmlns="http://www.w3.org/2000/svg">
<rect width="68" height="26" rx="13" fill="#FF0700"/>
<path d="M22.2324 16.5V9.51758H25.5039C26.832 9.51758 27.4961 10.0596 27.4961 11.1436C27.4961 11.9378 27.0632 12.5059 26.1973 12.8477C27.1217 13.0202 27.584 13.5492 27.584 14.4346C27.584 15.8115 26.8564 16.5 25.4014 16.5H22.2324ZM25.3477 15.377C25.9206 15.377 26.207 15.084 26.207 14.498C26.207 13.7721 25.779 13.4092 24.9229 13.4092H24.5322V12.5742C25.6064 12.3952 26.1436 11.946 26.1436 11.2266C26.1436 10.8359 25.9027 10.6406 25.4209 10.6406H23.5264V15.377H25.3477ZM28.3213 14.9033C28.3213 13.8844 29.0635 13.375 30.5479 13.375C30.8962 13.375 31.2445 13.4076 31.5928 13.4727V13.0869C31.5928 12.6279 31.2624 12.3984 30.6016 12.3984C30.0417 12.3984 29.4199 12.4798 28.7363 12.6426V11.6172C29.4199 11.4544 30.0417 11.373 30.6016 11.373C32.125 11.373 32.8867 11.9362 32.8867 13.0625V16.5H32.1348L31.6758 16.041C31.2298 16.347 30.7383 16.5 30.2012 16.5C28.9479 16.5 28.3213 15.9678 28.3213 14.9033ZM31.5928 14.3516C31.2673 14.2865 30.9189 14.2539 30.5479 14.2539C29.9261 14.2539 29.6152 14.4655 29.6152 14.8887C29.6152 15.3444 29.8757 15.5723 30.3965 15.5723C30.8262 15.5723 31.2249 15.4388 31.5928 15.1719V14.3516ZM34.1123 16.2559V15.1816C34.682 15.4095 35.3395 15.5234 36.085 15.5234C36.6416 15.5234 36.9199 15.3444 36.9199 14.9863C36.9199 14.6445 36.7327 14.4736 36.3584 14.4736H35.4307C34.389 14.4736 33.8682 13.9609 33.8682 12.9355C33.8682 11.8613 34.6283 11.3242 36.1484 11.3242C36.793 11.3242 37.4001 11.4219 37.9697 11.6172V12.6914C37.4001 12.4635 36.7816 12.3496 36.1143 12.3496C35.4144 12.3496 35.0645 12.5286 35.0645 12.8867C35.0645 13.2285 35.2679 13.3994 35.6748 13.3994H36.5049C37.6442 13.3994 38.2139 13.9121 38.2139 14.9375C38.2139 16.0117 37.488 16.5488 36.0361 16.5488C35.3232 16.5488 34.682 16.4512 34.1123 16.2559ZM40.416 9.51758V10.543H39.1221V9.51758H40.416ZM40.416 11.373V16.5H39.1221V11.373H40.416ZM45.4258 16.3535C45.0026 16.4512 44.5632 16.5 44.1074 16.5C42.2845 16.5 41.373 15.613 41.373 13.8389C41.373 12.195 42.2845 11.373 44.1074 11.373C44.5632 11.373 45.0026 11.4219 45.4258 11.5195V12.5449C45.0026 12.4473 44.5957 12.3984 44.2051 12.3984C43.1797 12.3984 42.667 12.8786 42.667 13.8389C42.667 14.9294 43.1797 15.4746 44.2051 15.4746C44.5957 15.4746 45.0026 15.4258 45.4258 15.3281V16.3535Z" fill="white"/>
</svg>
