<svg width="74" height="56" viewBox="0 0 74 56" fill="none" xmlns="http://www.w3.org/2000/svg">
<path d="M32.6111 0H20.9444C20.4287 0 19.9342 0.20486 19.5695 0.569515C19.2049 0.934169 19 1.42875 19 1.94444V13.6111C19 14.1268 19.2049 14.6214 19.5695 14.986C19.9342 15.3507 20.4287 15.5556 20.9444 15.5556H32.6111C33.1268 15.5556 33.6214 15.3507 33.986 14.986C34.3507 14.6214 34.5556 14.1268 34.5556 13.6111V1.94444C34.5556 1.42875 34.3507 0.934169 33.986 0.569515C33.6214 0.20486 33.1268 0 32.6111 0ZM52.0556 0H40.3889C39.8732 0 39.3786 0.20486 39.014 0.569515C38.6493 0.934169 38.4444 1.42875 38.4444 1.94444V13.6111C38.4444 14.1268 38.6493 14.6214 39.014 14.986C39.3786 15.3507 39.8732 15.5556 40.3889 15.5556H52.0556C52.5713 15.5556 53.0658 15.3507 53.4305 14.986C53.7951 14.6214 54 14.1268 54 13.6111V1.94444C54 1.42875 53.7951 0.934169 53.4305 0.569515C53.0658 0.20486 52.5713 0 52.0556 0ZM32.6111 19.4444H20.9444C20.4287 19.4444 19.9342 19.6493 19.5695 20.014C19.2049 20.3786 19 20.8732 19 21.3889V33.0556C19 33.5713 19.2049 34.0658 19.5695 34.4305C19.9342 34.7951 20.4287 35 20.9444 35H32.6111C33.1268 35 33.6214 34.7951 33.986 34.4305C34.3507 34.0658 34.5556 33.5713 34.5556 33.0556V21.3889C34.5556 20.8732 34.3507 20.3786 33.986 20.014C33.6214 19.6493 33.1268 19.4444 32.6111 19.4444ZM48.1667 21.3889H44.2778V25.2778H40.3889V29.1667H44.2778V33.0556H48.1667V29.1667H52.0556V25.2778H48.1667V21.3889Z" fill="white"/>
</svg>
