<svg width="68" height="26" viewBox="0 0 68 26" fill="none" xmlns="http://www.w3.org/2000/svg">
<rect width="68" height="26" rx="13" fill="#FF0700"/>
<path d="M14.2324 16.5V9.51758H17.3574C18.7832 9.51758 19.4961 10.1735 19.4961 11.4854C19.4961 12.9079 18.5212 13.7689 16.5713 14.0684L16.3857 12.916C17.5576 12.7044 18.1436 12.2406 18.1436 11.5244C18.1436 10.945 17.8538 10.6553 17.2744 10.6553H15.5264V16.5H14.2324ZM20.2334 16.5V11.373H21.2344L21.3955 12.0273C21.8447 11.5911 22.32 11.373 22.8213 11.373V12.418C22.3395 12.418 21.9082 12.6182 21.5273 13.0186V16.5H20.2334ZM25.7168 11.373C27.2728 11.373 28.0508 12.1673 28.0508 13.7559C28.0508 13.9674 28.0361 14.179 28.0068 14.3906H24.6035C24.6035 15.1133 25.1341 15.4746 26.1953 15.4746C26.7129 15.4746 27.2305 15.4258 27.748 15.3281V16.3535C27.2956 16.4512 26.7454 16.5 26.0977 16.5C24.2389 16.5 23.3096 15.626 23.3096 13.8779C23.3096 12.208 24.112 11.373 25.7168 11.373ZM24.6035 13.4922H26.791V13.4531C26.791 12.7435 26.4329 12.3887 25.7168 12.3887C25.0332 12.3887 24.6621 12.7565 24.6035 13.4922ZM29.0225 16.5V11.373H30.0234L30.1748 12.1152C30.6338 11.6204 31.1855 11.373 31.8301 11.373C32.4746 11.373 32.9157 11.6074 33.1533 12.0762C33.6774 11.6074 34.2259 11.373 34.7988 11.373C35.9772 11.373 36.5664 12.0225 36.5664 13.3213V16.5H35.2725V13.2725C35.2725 12.7028 35.0153 12.418 34.501 12.418C34.1169 12.418 33.7474 12.5905 33.3926 12.9355V16.5H32.0986V13.2871C32.0986 12.7077 31.861 12.418 31.3857 12.418C31.0081 12.418 30.6517 12.5905 30.3164 12.9355V16.5H29.0225ZM39.0859 9.51758V10.543H37.792V9.51758H39.0859ZM39.0859 11.373V16.5H37.792V11.373H39.0859ZM44.9258 11.373V16.5H43.915L43.7588 15.8457C43.1696 16.2819 42.5446 16.5 41.8838 16.5C40.8356 16.5 40.3115 15.8799 40.3115 14.6396V11.373H41.6055V14.6055C41.6055 15.1719 41.8529 15.4551 42.3477 15.4551C42.7676 15.4551 43.1956 15.2874 43.6318 14.9521V11.373H44.9258ZM46.1514 16.5V11.373H47.1523L47.3037 12.1152C47.7627 11.6204 48.3145 11.373 48.959 11.373C49.6035 11.373 50.0446 11.6074 50.2822 12.0762C50.8063 11.6074 51.3548 11.373 51.9277 11.373C53.1061 11.373 53.6953 12.0225 53.6953 13.3213V16.5H52.4014V13.2725C52.4014 12.7028 52.1442 12.418 51.6299 12.418C51.2458 12.418 50.8763 12.5905 50.5215 12.9355V16.5H49.2275V13.2871C49.2275 12.7077 48.9899 12.418 48.5146 12.418C48.137 12.418 47.7806 12.5905 47.4453 12.9355V16.5H46.1514Z" fill="white"/>
</svg>
