<svg width="99" height="35" viewBox="0 0 99 35" fill="none" xmlns="http://www.w3.org/2000/svg">
<rect width="99" height="35" rx="17.5" fill="#FF0700"/>
<path d="M35.4648 24.5V10.5352H41.7148C44.5664 10.5352 45.9922 11.847 45.9922 14.4707C45.9922 17.3158 44.0423 19.0378 40.1426 19.6367L39.7715 17.332C42.1152 16.9089 43.2871 15.9811 43.2871 14.5488C43.2871 13.39 42.7077 12.8105 41.5488 12.8105H38.0527V24.5H35.4648ZM47.4668 24.5V14.2461H49.4688L49.791 15.5547C50.6895 14.6823 51.64 14.2461 52.6426 14.2461V16.3359C51.679 16.3359 50.8164 16.7363 50.0547 17.5371V24.5H47.4668ZM56.207 19.334C56.207 21.4759 57.0371 22.5469 58.6973 22.5469C60.3574 22.5469 61.1875 21.4759 61.1875 19.334C61.1875 17.2441 60.3574 16.1992 58.6973 16.1992C57.0371 16.1992 56.207 17.2441 56.207 19.334ZM53.6191 19.373C53.6191 15.9355 55.3118 14.2168 58.6973 14.2168C62.0827 14.2168 63.7754 15.9355 63.7754 19.373C63.7754 22.804 62.0827 24.5195 58.6973 24.5195C55.3249 24.5195 53.6322 22.804 53.6191 19.373Z" fill="white"/>
</svg>
